<?xml version="1.0" standalone="no"?>
<!DOCTYPE svg PUBLIC "-//W3C//DTD SVG 20010904//EN"
 "http://www.w3.org/TR/2001/REC-SVG-20010904/DTD/svg10.dtd">
<svg version="1.0" xmlns="http://www.w3.org/2000/svg"
 width="512.000000pt" height="512.000000pt" viewBox="0 0 512.000000 512.000000"
 preserveAspectRatio="xMidYMid meet">
<metadata>
Created by potrace 1.14, written by Peter Selinger 2001-2017
</metadata>
<g transform="translate(0.000000,512.000000) scale(0.100000,-0.100000)"
fill="#000000" stroke="none">
<path d="M2378 5115 c-2 -1 -34 -5 -73 -9 -38 -3 -97 -10 -130 -16 -33 -6 -76
-13 -95 -16 -106 -17 -413 -105 -434 -125 -6 -5 -16 -9 -23 -9 -14 0 -93 -35
-223 -100 -336 -166 -658 -437 -891 -750 -232 -311 -399 -691 -464 -1055 -31
-174 -38 -259 -39 -445 -1 -296 19 -459 88 -710 90 -327 257 -660 452 -900
318 -391 696 -665 1134 -823 229 -83 378 -116 650 -146 73 -8 460 -6 510 3 14
2 48 7 75 11 202 27 490 107 655 182 424 190 772 465 1034 813 l71 95 108 0
c59 0 107 3 107 8 0 5 -17 58 -37 118 l-37 108 41 83 c119 239 207 526 238
778 3 25 9 77 14 115 8 70 7 472 -2 510 -3 11 -8 45 -11 75 -56 450 -269 929
-574 1292 -107 126 -245 263 -342 338 -24 19 -53 43 -65 53 -98 88 -437 279
-620 350 -151 58 -345 114 -455 131 -19 3 -46 8 -60 11 -14 3 -52 8 -85 11
-33 4 -64 9 -69 12 -9 5 -442 12 -448 7z"/>
</g>
</svg>
